<?xml version="1.0" encoding="UTF-8" standalone="no" ?>
<svg xmlns="http://www.w3.org/2000/svg" xmlns:xlink="http://www.w3.org/1999/xlink" version="1.1" width="1080" height="1080" viewBox="0 0 1080 1080" xml:space="preserve">
<desc>Created with Fabric.js 5.2.4</desc>
<defs>
</defs>
<g transform="matrix(1 0 0 1 540 540)" id="646e3496-7609-422e-af15-e5eff33e1ee1"  >
<rect style="stroke: none; stroke-width: 1; stroke-dasharray: none; stroke-linecap: butt; stroke-dashoffset: 0; stroke-linejoin: miter; stroke-miterlimit: 4; fill: rgb(255,255,255); fill-rule: nonzero; opacity: 1; visibility: hidden;" vector-effect="non-scaling-stroke"  x="-540" y="-540" rx="0" ry="0" width="1080" height="1080" />
</g>
<g transform="matrix(1 0 0 1 540 540)" id="1a3a63df-687f-42c4-a266-d9ee64c13609"  >
</g>
<g transform="matrix(2.11 0 0 2.11 540 540)" id="Layer_1"  >
<path style="stroke: none; stroke-width: 1; stroke-dasharray: none; stroke-linecap: butt; stroke-dashoffset: 0; stroke-linejoin: miter; stroke-miterlimit: 4; fill: rgb(255,255,255); fill-rule: nonzero; opacity: 1;"  transform=" translate(-256, -256)" d="M 477.604 261.355 C 470.74199999999996 213.33300000000003 441.39099999999996 69.27200000000002 412.486 54.815000000000026 C 409.881 53.51300000000003 405.877 51.331000000000024 400.823 48.58500000000002 C 340.186 15.624 280.307 -12.401 253.229 5.676 C 232.23600000000002 19.676000000000002 214.217 52.258 211.32100000000003 81.47 C 209.64000000000001 98.444 213.28400000000002 111.944 221.85600000000002 120.51599999999999 C 240.64300000000003 139.313 303.389 131.518 336.463 125.80799999999999 C 334.247 136.269 329.475 154.02599999999998 319.173 179.767 C 302.641 221.09699999999998 311.553 285.797 316.335 313.166 L 294.856 313.166 C 278.158 278.33299999999997 255.134 260.411 226.356 254.686 C 169.558 243.344 109.76599999999999 290.773 95.74199999999999 303.213 L 59.704 303.213 C 54.203 303.213 49.752 307.66900000000004 49.752 313.165 C 49.752 318.661 54.203 323.117 59.704 323.117 L 99.513 323.117 C 102.01100000000001 323.117 104.421 321.85400000000004 106.25800000000001 320.16200000000003 C 106.87 319.593 168.888 263.03400000000005 222.517 273.735 C 246.319 278.486 265.514 296.586 279.568 327.045 C 281.20099999999996 330.57300000000004 284.729 333.06800000000004 288.60699999999997 333.06800000000004 L 328.41599999999994 333.06800000000004 C 331.43899999999996 333.06800000000004 334.28599999999994 331.37700000000007 336.18199999999996 329.02000000000004 C 338.06699999999995 326.66800000000006 338.78599999999994 323.42300000000006 338.13499999999993 320.47700000000003 C 337.9409999999999 319.612 319.1049999999999 233.29000000000002 337.65899999999993 186.92000000000004 C 357.68999999999994 136.82300000000004 358.2729999999999 115.75200000000004 358.2729999999999 113.51700000000004 C 358.2729999999999 110.53800000000004 356.9319999999999 107.68900000000004 354.62799999999993 105.79900000000004 C 352.33399999999995 103.91400000000003 349.3019999999999 103.14600000000003 346.3669999999999 103.72900000000004 C 301.0179999999999 112.78200000000004 245.8919999999999 116.39300000000004 235.92899999999992 106.44500000000004 C 231.8369999999999 102.35300000000004 230.0879999999999 93.96300000000004 231.12799999999993 83.42800000000004 C 233.45099999999994 59.957000000000036 248.00999999999993 33.07300000000004 264.2699999999999 22.23600000000004 C 278.11999999999995 13.00300000000004 320.8739999999999 27.77500000000004 391.3169999999999 66.07200000000003 C 396.63299999999987 68.95900000000003 400.84199999999987 71.24700000000003 403.4849999999999 72.56400000000004 C 417.1019999999999 81.17000000000003 446.5889999999999 185.02800000000002 457.8919999999999 264.17 C 466.31799999999987 323.13 460.0979999999999 412.716 458.2909999999999 435.56 C 424.1969999999999 452.471 212.82599999999988 549.38 45.114999999999895 443.438 C 40.459999999999894 440.517 34.3269999999999 441.897 31.381999999999895 446.538 C 28.446999999999896 451.188 29.836999999999897 457.336 34.48199999999989 460.271 C 95.53699999999989 498.826 161.8309999999999 512.001 223.9549999999999 511.99600000000004 C 356.9989999999999 511.99100000000004 470.8289999999999 451.55300000000005 472.4909999999999 450.65400000000005 C 475.4159999999999 449.06500000000005 477.3599999999999 446.12000000000006 477.6609999999999 442.80100000000004 C 478.07 438.291 487.604 331.371 477.604 261.355 z" stroke-linecap="round" />
</g>
</svg>